<?xml version="1.0" encoding="UTF-8" standalone="no"?>
<!DOCTYPE svg PUBLIC "-//W3C//DTD SVG 1.1//EN" "http://www.w3.org/Graphics/SVG/1.1/DTD/svg11.dtd">
<svg xmlns="http://www.w3.org/2000/svg" version="1.1" viewBox="0 0 186 200" width="186" height="200">
<g stroke-width="2.00" fill="none" stroke-linecap="butt">
<path stroke="#fd9a13" vector-effect="non-scaling-stroke" d="
  M 92.81 0.00
  L 92.71 54.50"
/>
<path stroke="#ffd393" vector-effect="non-scaling-stroke" d="
  M 92.71 54.50
  L 79.19 48.15
  A 1.11 0.92 -45.0 0 0 78.22 48.24
  L 42.05 70.54
  Q 40.71 71.36 42.10 72.04
  L 62.68 82.03"
/>
<path stroke="#ffcd83" vector-effect="non-scaling-stroke" d="
  M 62.68 82.03
  L 41.68 95.18
  Q 40.75 95.76 41.74 96.24
  L 63.00 106.54"
/>
<path stroke="#ffc46c" vector-effect="non-scaling-stroke" d="
  M 63.00 106.54
  L 41.84 119.53
  Q 40.77 120.19 41.91 120.74
  L 92.91 145.43"
/>
<path stroke="#fd9a13" vector-effect="non-scaling-stroke" d="
  M 92.91 145.43
  L 92.75 198.01
  A 1.56 0.78 42.0 0 0 93.09 198.87
  L 93.75 199.79"
/>
<path stroke="#fdb659" vector-effect="non-scaling-stroke" d="
  M 92.91 145.43
  L 106.52 151.83
  A 1.15 0.84 -43.1 0 0 107.48 151.71
  L 144.14 129.36
  Q 145.29 128.66 144.11 128.09
  L 123.21 118.00"
/>
<path stroke="#fdc070" vector-effect="non-scaling-stroke" d="
  M 123.21 118.00
  L 144.70 104.68
  Q 145.28 104.32 144.68 104.03
  L 123.00 93.71"
/>
<path stroke="#fdc680" vector-effect="non-scaling-stroke" d="
  M 123.00 93.71
  L 144.61 80.31
  Q 145.36 79.85 144.57 79.47
  L 92.71 54.50"
/>
<path stroke="#fff9f0" vector-effect="non-scaling-stroke" d="
  M 123.00 93.71
  L 107.20 103.01
  A 0.93 0.90 -47.3 0 1 106.33 103.06
  L 62.68 82.03"
/>
<path stroke="#ffeac9" vector-effect="non-scaling-stroke" d="
  M 123.21 118.00
  L 107.26 127.50
  A 0.81 0.77 -46.5 0 1 106.50 127.54
  L 63.00 106.54"
/>
</g>
<path fill="#ffa726" d="
  M 92.06 0.00
  L 92.81 0.00
  L 92.71 54.50
  L 79.19 48.15
  A 1.11 0.92 -45.0 0 0 78.22 48.24
  L 42.05 70.54
  Q 40.71 71.36 42.10 72.04
  L 62.68 82.03
  L 41.68 95.18
  Q 40.75 95.76 41.74 96.24
  L 63.00 106.54
  L 41.84 119.53
  Q 40.77 120.19 41.91 120.74
  L 92.91 145.43
  L 92.75 198.01
  A 1.56 0.78 42.0 0 0 93.09 198.87
  L 93.75 199.79
  L 93.69 200.00
  L 92.19 200.00
  L 14.25 156.43
  A 0.95 0.95 -78.6 0 1 13.76 155.69
  L 0.00 35.44
  L 0.00 33.19
  L 92.06 0.00
  Z"
/>
<path fill="#fb8c00" d="
  M 92.81 0.00
  Q 93.60 -0.09 94.27 0.12
  L 186.00 33.06
  L 185.93 37.55
  L 171.95 155.96
  A 0.59 0.57 -12.2 0 1 171.65 156.41
  L 93.75 199.79
  L 93.09 198.87
  A 1.56 0.78 42.0 0 1 92.75 198.01
  L 92.91 145.43
  L 106.52 151.83
  A 1.15 0.84 -43.1 0 0 107.48 151.71
  L 144.14 129.36
  Q 145.29 128.66 144.11 128.09
  L 123.21 118.00
  L 144.70 104.68
  Q 145.28 104.32 144.68 104.03
  L 123.00 93.71
  L 144.61 80.31
  Q 145.36 79.85 144.57 79.47
  L 92.71 54.50
  L 92.81 0.00
  Z"
/>
<path fill="#ffffff" d="
  M 92.71 54.50
  L 144.57 79.47
  Q 145.36 79.85 144.61 80.31
  L 123.00 93.71
  L 107.20 103.01
  A 0.93 0.90 -47.3 0 1 106.33 103.06
  L 62.68 82.03
  L 42.10 72.04
  Q 40.71 71.36 42.05 70.54
  L 78.22 48.24
  A 1.11 0.92 -45.0 0 1 79.19 48.15
  L 92.71 54.50
  Z"
/>
<path fill="#fff3e0" d="
  M 62.68 82.03
  L 106.33 103.06
  A 0.93 0.90 -47.3 0 0 107.20 103.01
  L 123.00 93.71
  L 144.68 104.03
  Q 145.28 104.32 144.70 104.68
  L 123.21 118.00
  L 107.26 127.50
  A 0.81 0.77 -46.5 0 1 106.50 127.54
  L 63.00 106.54
  L 41.74 96.24
  Q 40.75 95.76 41.68 95.18
  L 62.68 82.03
  Z"
/>
<path fill="#ffe0b2" d="
  M 63.00 106.54
  L 106.50 127.54
  A 0.81 0.77 -46.5 0 0 107.26 127.50
  L 123.21 118.00
  L 144.11 128.09
  Q 145.29 128.66 144.14 129.36
  L 107.48 151.71
  A 1.15 0.84 -43.1 0 1 106.52 151.83
  L 92.91 145.43
  L 41.91 120.74
  Q 40.77 120.19 41.84 119.53
  L 63.00 106.54
  Z"
/>
</svg>
